<svg xmlns="http://www.w3.org/2000/svg" width="256" height="256" viewBox="0 0 100 100"><rect width="100" height="100" rx="50" fill="#7d6ee7"></rect><path fill="#fff" d="M57.89 16.71L58.94 17.90Q57.54 20.01 55.60 21.85Q53.67 23.70 51.36 25.10Q49.06 26.51 46.51 27.32Q43.96 28.14 41.41 28.14L41.41 28.14L40.40 28.23Q38.73 30.33 37.85 32.31Q36.97 34.29 36.97 36.97L36.97 36.97L36.97 65.05Q36.97 70.90 34.49 75.44Q32.00 79.99 27.17 83.29L27.17 83.29L25.72 81.62Q26.47 80.78 26.91 79.71Q27.35 78.63 27.57 77.49Q27.79 76.35 27.85 75.18Q27.92 74.02 27.92 72.96L27.92 72.96L27.92 42.07Q27.92 40.00 28.77 38.05Q29.63 36.09 30.95 34.33Q32.27 32.58 33.87 31.04Q35.48 29.50 36.97 28.23L36.97 28.23L22.42 28.14Q20.75 28.14 19.46 28.47Q18.16 28.80 17.06 29.41Q15.96 30.03 14.95 30.95Q13.94 31.87 12.89 33.10L12.89 33.10L11.61 31.74Q13.06 29.76 14.89 27.57Q16.71 25.37 18.84 23.57Q20.97 21.77 23.41 20.58Q25.85 19.39 28.53 19.39L28.53 19.39L47.52 19.39Q48.66 19.39 50.09 19.26Q51.52 19.13 52.97 18.82Q54.42 18.51 55.71 18.01Q57.01 17.50 57.89 16.71L57.89 16.71ZM87.16 75.95L88.39 77.27Q87.38 79.42 86.01 80.56Q84.65 81.71 83.42 82.23L83.42 82.23Q81.97 82.85 80.48 82.94L80.48 82.94Q78.50 82.94 77.25 82.32Q75.99 81.71 75.25 80.70Q74.50 79.69 74.21 78.41Q73.93 77.14 73.93 75.82L73.93 75.82L73.93 61.80Q73.58 63.38 73.03 65.58Q72.48 67.78 71.69 70.17Q70.90 72.57 69.84 74.92Q68.79 77.27 67.40 79.11Q66.02 80.96 64.28 82.12Q62.55 83.29 60.39 83.29L60.39 83.29Q58.59 83.29 57.56 82.61Q56.53 81.93 56.02 80.67Q55.52 79.42 55.41 77.69Q55.30 75.95 55.30 73.84L55.30 73.84L55.30 54.77Q55.30 53.71 54.81 53.10Q54.33 52.48 53.56 52.46Q52.79 52.44 51.87 53.01Q50.94 53.58 50.07 54.86L50.07 54.86L48.88 53.54Q49.89 51.43 51.21 50.26Q52.53 49.10 53.80 48.57L53.80 48.57Q55.25 47.96 56.79 47.87L56.79 47.87Q58.77 47.87 60.02 48.48Q61.27 49.10 62.00 50.09Q62.72 51.08 63.01 52.35Q63.29 53.63 63.29 54.94L63.29 54.94L63.29 73.14Q63.29 74.85 63.91 75.38Q64.52 75.91 65.51 75.22Q66.50 74.54 67.71 72.72Q68.92 70.90 70.15 67.91L70.15 67.91Q70.94 65.05 71.69 62.02L71.69 62.02Q72.30 59.43 72.94 56.31Q73.58 53.19 73.93 50.29L73.93 50.29L82.01 47.47L82.01 76.04Q82.01 77.09 82.50 77.71Q82.98 78.32 83.73 78.34Q84.48 78.37 85.38 77.80Q86.28 77.22 87.16 75.95L87.16 75.95Z"></path></svg>